<svg width="269" height="295" viewBox="0 0 269 295" fill="none" xmlns="http://www.w3.org/2000/svg">
<path fill-rule="evenodd" clip-rule="evenodd" d="M0 53.3915L134.032 159.185L268.878 97.4709L268.395 53.525L141.232 0L0 53.3915Z" fill="#ED4035"/>
<path fill-rule="evenodd" clip-rule="evenodd" d="M130.135 294.58L268.923 235.12L131.924 250.416L44.4723 210.859L44.6018 189.667L133.335 227.19L268.999 166.804L134.061 182.483L44.5072 142.149L44.6203 121.244L134.032 159.185L133.818 114.073L0 53.3912L2.80703 238.659L130.135 294.58Z" fill="#BD1F2D"/>
<path fill-rule="evenodd" clip-rule="evenodd" d="M134.062 182.483L133.336 227.19L269.001 166.804L267.956 147.113L266.711 123.714L134.062 182.483Z" fill="#ED4035"/>
<path fill-rule="evenodd" clip-rule="evenodd" d="M131.923 250.417L130.134 294.58L268.922 235.12L267.437 192.126L131.923 250.417Z" fill="#ED4035"/>
</svg>
