<svg width="148" height="30" viewBox="0 0 148 30" fill="none" xmlns="http://www.w3.org/2000/svg">
<path d="M0.444 29.1389V0.158914H14.136C18.84 0.158914 21.192 2.51091 21.192 7.21492V9.73492C21.192 10.6869 20.912 11.4989 20.352 12.1709L18.882 13.9349L20.646 15.4049C21.57 16.1609 22.032 17.2809 22.032 18.7649V22.0829C22.032 26.7869 19.68 29.1389 14.976 29.1389H0.444ZM6.492 23.6789H14.724C15.564 23.6789 15.984 23.2589 15.984 22.4189V18.2189C15.984 17.3789 15.564 16.9589 14.724 16.9589H6.492V23.6789ZM6.492 11.4989H13.884C14.724 11.4989 15.144 11.0789 15.144 10.2389V6.87891C15.144 6.03892 14.724 5.61892 13.884 5.61892H6.492V11.4989ZM25.1544 28.0049L33.7644 0.158914H43.0044L51.6144 28.0049L50.8584 29.1389H45.8184L44.0544 23.2589H32.7144L30.9504 29.1389H25.9104L25.1544 28.0049ZM34.3524 17.7989H42.4164L38.7204 5.61892H38.0484L34.3524 17.7989ZM51.2873 5.61892V0.158914H74.9753V5.61892H66.1553V29.1389H60.1073V5.61892H51.2873ZM77.0041 5.61892V0.158914H100.692V5.61892H91.8721V29.1389H85.8241V5.61892H77.0041ZM105.157 29.1389V0.158914H111.205V23.6789H123.721V29.1389H105.157ZM128.167 29.1389V0.158914H147.991V5.61892H134.215V11.4989H146.731V16.9589H134.215V23.6789H147.991V29.1389H128.167Z" fill="#ED4035"/>
</svg>
